<svg width="100" height="110" xmlns="http://www.w3.org/2000/svg">
    <polygon points="50,5 95,27.5 95,72.5 50,95 5,72.5 5,27.5" fill="#f4d258" />
    <path fill="#c2a44d"
        d="M50,40 q15,10 0,20 q-15,-10 0,-20 M50,60 q15,10 0,20 q-15,-10 0,-20 M40,50 q-15,10 0,20 q15,-10 0,-20 M40,30 q-15,10 0,20 q15,-10 0,-20 M60,50 q15,10 0,20 q-15,-10 0,-20 M60,30 q15,10 0,20 q-15,-10 0,-20" />
    <circle fill="#f4d258" cx="50" cy="50" r="3" />
    <circle fill="#f4d258" cx="40" cy="60" r="3" />
    <circle fill="#f4d258" cx="60" cy="60" r="3" />
    <circle fill="#f4d258" cx="40" cy="40" r="3" />
    <circle fill="#f4d258" cx="60" cy="40" r="3" />
</svg>
  